<svg width="75" height="75" viewBox="0 0 75 75" fill="none" xmlns="http://www.w3.org/2000/svg">
<g clip-path="url(#clip0_48_171)">
<path d="M72.7091 36.8446C72.7091 32.2702 70.6567 28.0068 67.0782 25.1479C66.9655 25.0578 66.8362 24.9908 66.6977 24.9507C66.5591 24.9106 66.414 24.8982 66.2707 24.9143C66.1273 24.9303 65.9885 24.9744 65.8622 25.0441C65.7359 25.1138 65.6246 25.2076 65.5346 25.3204C65.4446 25.433 65.3776 25.5623 65.3376 25.7009C65.2975 25.8394 65.2851 25.9845 65.3011 26.1279C65.3172 26.2712 65.3613 26.41 65.4309 26.5363C65.5006 26.6626 65.5944 26.7739 65.7071 26.8639C68.7611 29.3038 70.5126 32.9416 70.5126 36.8446C70.5126 42.0578 67.3145 46.761 62.5074 48.6946C60.9977 47.2023 58.951 46.3543 56.8161 46.3543H53.3076C53.2199 46.3546 53.1331 46.3368 53.0526 46.302C52.9722 46.2672 52.8998 46.2161 52.84 46.1519C52.7782 46.0865 52.7307 46.009 52.7004 45.9242C52.67 45.8395 52.6575 45.7494 52.6637 45.6596C52.7801 43.7945 53.3182 41.8757 54.3086 39.7934C54.6468 39.0826 54.4808 38.2489 53.8956 37.7188C53.3121 37.19 52.4682 37.1071 51.7959 37.5126C48.9537 39.2272 46.3271 42.6049 43.9123 45.9998C42.4208 48.0964 39.9964 49.3483 37.4269 49.3483C36.0868 49.3471 34.7686 49.0082 33.5941 48.3629C33.4678 48.2934 33.329 48.2494 33.1856 48.2336C33.0422 48.2177 32.8972 48.2302 32.7586 48.2704C32.6201 48.3106 32.4909 48.3777 32.3783 48.4678C32.2657 48.558 32.172 48.6694 32.1024 48.7958C32.0329 48.9221 31.989 49.061 31.9731 49.2043C31.9572 49.3477 31.9697 49.4928 32.0099 49.6313C32.0501 49.7698 32.1172 49.899 32.2073 50.0116C32.2975 50.1242 32.4089 50.218 32.5353 50.2875C34.0342 51.111 35.7165 51.5434 37.4267 51.5449C40.7059 51.5449 43.7994 49.9479 45.702 47.273C47.6071 44.5951 49.634 41.9389 51.7084 40.2595C50.9849 42.0766 50.5782 43.8101 50.4715 45.5227C50.4476 45.9118 50.5034 46.3017 50.6353 46.6685C50.7673 47.0353 50.9728 47.3713 51.2391 47.6559C51.5049 47.9379 51.8254 48.1627 52.1811 48.3165C52.5368 48.4703 52.9201 48.55 53.3076 48.5506H56.8161C57.6416 48.5511 58.4579 48.7245 59.2123 49.0599C59.9666 49.3952 60.6423 49.885 61.1957 50.4976H58.7456C57.7489 50.4985 56.7834 50.8451 56.0138 51.4784L54.2162 52.96C51.4224 55.2628 47.8899 56.531 44.2692 56.531H42.6308V56.4253C42.6308 55.8187 42.1392 55.3271 41.5325 55.3271C40.9259 55.3271 40.4343 55.8187 40.4343 56.4253V58.7917C40.4342 58.9068 40.3884 59.0172 40.307 59.0986C40.2256 59.1801 40.1152 59.2259 40.0001 59.226H34.8538C34.7386 59.2258 34.6282 59.18 34.5468 59.0986C34.4654 59.0172 34.4196 58.9068 34.4194 58.7917V56.4253C34.4194 55.8187 33.9277 55.3271 33.3212 55.3271C32.7147 55.3271 32.223 55.8187 32.223 56.4253V56.531H30.5845C26.964 56.531 23.4313 55.2628 20.6374 52.96L18.8399 51.4784C18.0703 50.8451 17.1048 50.4985 16.1081 50.4976H13.6579C14.2113 49.8851 14.887 49.3953 15.6413 49.06C16.3957 48.7246 17.212 48.5511 18.0375 48.5506H21.546C21.9335 48.55 22.3168 48.4703 22.6724 48.3164C23.028 48.1626 23.3485 47.9379 23.6144 47.6559C23.8807 47.3713 24.0862 47.0353 24.2182 46.6685C24.3503 46.3017 24.4061 45.9118 24.3823 45.5227C24.2754 43.8105 23.8689 42.0772 23.1455 40.2602C25.1367 41.8733 27.0558 44.3603 28.719 46.6686C28.8033 46.7856 28.9098 46.8849 29.0324 46.9608C29.1551 47.0367 29.2915 47.0876 29.4339 47.1108C29.5762 47.1339 29.7218 47.1287 29.8621 47.0956C30.0025 47.0625 30.135 47.002 30.252 46.9176C30.4883 46.7474 30.6473 46.4902 30.694 46.2027C30.7407 45.9152 30.6713 45.621 30.5011 45.3846C28.3699 42.4266 25.8189 39.178 23.0576 37.5123C22.3855 37.107 21.5416 37.19 20.9582 37.7185C20.3729 38.2486 20.207 39.0823 20.5451 39.7933C21.5356 41.8755 22.0738 43.7944 22.1902 45.6595C22.1963 45.7493 22.1838 45.8394 22.1534 45.9241C22.1231 46.0088 22.0755 46.0863 22.0137 46.1518C21.9539 46.2159 21.8815 46.267 21.8011 46.3018C21.7206 46.3366 21.6338 46.3545 21.5462 46.3542H18.0376C15.923 46.3542 13.8954 47.1869 12.3901 48.6527C7.642 46.694 4.48756 42.0151 4.48756 36.8444C4.48756 33.253 6.01323 29.8072 8.67332 27.3908C8.88894 27.1949 9.01792 26.9214 9.0319 26.6305C9.04588 26.3395 8.9437 26.0549 8.74785 25.8393C8.552 25.6237 8.27852 25.4947 7.98756 25.4807C7.69661 25.4668 7.41202 25.5689 7.1964 25.7648C4.07901 28.5968 2.29108 32.6351 2.29108 36.8443C2.29108 42.6382 5.67205 47.9034 10.8328 50.3611L10.3834 50.8634C10.242 51.0214 10.1493 51.217 10.1167 51.4265C10.084 51.636 10.1127 51.8505 10.1992 52.044C10.2858 52.2376 10.4265 52.4019 10.6044 52.5173C10.7824 52.6326 10.9899 52.694 11.2019 52.6939H16.1083C16.594 52.6939 17.0681 52.8641 17.443 53.1731L19.2406 54.6547C22.4269 57.2811 26.4556 58.7274 30.5847 58.7274H32.2231V58.7915C32.2231 59.8498 32.8526 60.7618 33.7557 61.1789V73.9014C33.7557 74.5081 34.2474 74.9996 34.8539 74.9996C35.4604 74.9996 35.9521 74.5081 35.9521 73.9014V61.4223H38.9019V73.9014C38.9019 74.5081 39.3934 74.9996 40.0001 74.9996C40.6068 74.9996 41.0984 74.5081 41.0984 73.9014V61.1792C42.0014 60.7621 42.6308 59.8501 42.6308 58.7918V58.7277H44.2692C48.3981 58.7277 52.4269 57.2814 55.6133 54.655L57.4107 53.1735C57.7868 52.8641 58.2586 52.6947 58.7456 52.6942H63.652C63.864 52.6943 64.0715 52.6329 64.2494 52.5176C64.4273 52.4022 64.5681 52.2379 64.6546 52.0443C64.7412 51.8507 64.7699 51.6363 64.7372 51.4268C64.7045 51.2173 64.6119 51.0217 64.4705 50.8637L64.0649 50.4103C69.2852 47.9743 72.7091 42.683 72.7091 36.8446Z" fill="black"/>
<path d="M11.8893 25.1538C12.031 25.1538 12.1752 25.1263 12.3142 25.0677C14.1707 24.2879 16.1717 23.9602 18.2179 24.1122C18.2718 24.1162 19.4459 24.2522 19.9597 24.3629C20.0376 24.3796 20.1154 24.3878 20.192 24.3878C20.4633 24.3879 20.725 24.2876 20.9267 24.1062C21.1285 23.9248 21.2559 23.6751 21.2845 23.4053C21.3131 23.1355 21.2408 22.8647 21.0816 22.645C20.9223 22.4254 20.6874 22.2724 20.4221 22.2156C20.0502 22.1355 19.6736 22.0729 19.2951 22.0216C19.2472 21.4813 19.2205 20.9396 19.2205 20.4027C19.2205 10.3637 27.3878 2.19648 37.4267 2.19648C47.4656 2.19648 55.6329 10.3637 55.6329 20.4027C55.6329 20.9456 55.6058 21.4934 55.5568 22.0399C55.5225 22.0449 55.4881 22.049 55.4538 22.0543C54.9779 22.1274 54.5058 22.2236 54.0391 22.3425C53.7613 22.4184 53.5244 22.6004 53.3795 22.8494C53.2346 23.0983 53.1932 23.3942 53.2644 23.6733C53.3355 23.9524 53.5135 24.1924 53.7598 24.3416C54.0062 24.4907 54.3014 24.5372 54.5817 24.4708C54.9794 24.3696 55.3818 24.2876 55.7874 24.2253C55.9984 24.1928 56.3721 24.1493 56.5859 24.1275C56.5857 24.127 57.3854 24.0764 57.744 24.0764C59.179 24.0764 60.5889 24.3133 61.9343 24.7805C62.2091 24.8745 62.5099 24.8559 62.7709 24.7287C63.032 24.6014 63.232 24.376 63.3273 24.1017C63.4225 23.8273 63.4052 23.5264 63.2792 23.2648C63.1532 23.0032 62.9287 22.8021 62.6548 22.7056C61.0856 22.161 59.4366 21.8819 57.7756 21.8799C57.8112 21.3865 57.8292 20.8928 57.8292 20.4027C57.8294 9.15259 48.6768 0 37.4267 0C26.1766 0 17.024 9.15259 17.024 20.4027C17.024 20.8932 17.0421 21.3873 17.0778 21.8809C15.1335 21.9033 13.2454 22.294 11.4633 23.043C11.2295 23.1413 11.037 23.3175 10.9184 23.5417C10.7998 23.7658 10.7624 24.0241 10.8126 24.2727C10.8627 24.5213 10.9974 24.7448 11.1936 24.9055C11.3899 25.0661 11.6357 25.1538 11.8893 25.1538Z" fill="black"/>
<path d="M52.15 24.1054C52.0818 23.9783 51.9891 23.8659 51.8774 23.7747C51.7657 23.6835 51.6371 23.6151 51.499 23.5736C51.3609 23.5321 51.2159 23.5183 51.0724 23.5328C50.9289 23.5474 50.7897 23.5901 50.6627 23.6585C50.1723 23.9222 49.698 24.2187 49.2389 24.5376C48.367 23.3342 47.3167 22.2708 46.1242 21.3839C43.5959 19.4998 40.5883 18.5039 37.4267 18.5039C34.2651 18.5039 31.2577 19.4998 28.7292 21.3839C27.5604 22.2536 26.528 23.293 25.6663 24.4676C25.4986 24.3526 25.3286 24.2411 25.1562 24.1332C24.9089 23.9792 24.6106 23.9297 24.3269 23.9956C24.0432 24.0615 23.7973 24.2375 23.6433 24.4847C23.4893 24.7319 23.4398 25.0302 23.5057 25.3139C23.5716 25.5977 23.7476 25.8436 23.9948 25.9976C24.1678 26.1059 24.3382 26.2183 24.5058 26.3348C24.1117 27.0905 23.7845 27.8793 23.528 28.6921C23.4846 28.8296 23.4688 28.9744 23.4814 29.118C23.494 29.2617 23.5348 29.4014 23.6015 29.5293C23.6681 29.6572 23.7592 29.7708 23.8698 29.8634C23.9803 29.9561 24.1079 30.0261 24.2455 30.0694C24.383 30.1128 24.5278 30.1286 24.6715 30.116C24.8152 30.1034 24.9549 30.0626 25.0829 29.996C25.2108 29.9294 25.3243 29.8382 25.417 29.7277C25.5097 29.6171 25.5797 29.4895 25.623 29.3519C27.2531 24.1773 31.9966 20.7005 37.4266 20.7005C42.8567 20.7005 47.6002 24.1773 49.2302 29.3519C49.3003 29.5747 49.4397 29.7693 49.628 29.9075C49.8163 30.0457 50.0437 30.1203 50.2773 30.1205C50.3865 30.1205 50.4978 30.1041 50.6075 30.0694C50.7451 30.0261 50.8727 29.9561 50.9832 29.8634C51.0937 29.7708 51.1849 29.6572 51.2515 29.5293C51.3182 29.4014 51.359 29.2617 51.3716 29.118C51.3842 28.9744 51.3684 28.8296 51.325 28.6921C51.0773 27.9069 50.7636 27.1441 50.3874 26.4118C50.8103 26.1131 51.249 25.8369 51.703 25.5928C51.83 25.5245 51.9424 25.4319 52.0336 25.3202C52.1248 25.2085 52.1932 25.0799 52.2347 24.9417C52.2762 24.8036 52.2901 24.6586 52.2756 24.5151C52.261 24.3716 52.2184 24.2324 52.15 24.1054Z" fill="black"/>
</g>
<defs>
<clipPath id="clip0_48_171">
<rect width="75" height="75" fill="white"/>
</clipPath>
</defs>
</svg>
